# Wavefront Obj file
# 
# verts: 8 uv-s: 20
mtllib Bouton.mtl

g Bouton

v -1.383928 11.044591 0.328450
v 1.383928 11.044591 0.328450
v -1.383928 14.035663 0.328451
v 1.383928 14.035663 0.328451
v -1.383928 11.044591 2.828450
v 1.383928 11.044591 2.828450
v -1.383928 14.035663 2.828450
v 1.383928 14.035663 2.828450
# 8 positions

vt 1.000000 0.000000
vt 1.000000 1.000000
vt 0.000000 1.000000
vt 0.000000 0.000000
vt 0.000000 0.000000
vt 1.000000 0.000000
vt 1.000000 1.000000
vt 0.000000 1.000000
vt 0.000000 0.000000
vt 1.000000 0.000000
vt 1.000000 1.000000
vt 0.000000 1.000000
vt 1.000000 0.000000
vt 0.000000 1.000000
vt 0.000000 0.000000
vt 1.000000 0.000000
vt 1.000000 1.000000
vt 0.000000 1.000000
vt 0.000000 0.000000
vt 1.000000 1.000000
# 20 texture coordinates

vn 0.000000 0.000000 -1.000000
vn 0.000000 0.000000 -1.000000
vn 0.000000 0.000000 -1.000000
vn 0.000000 0.000000 -1.000000
vn 0.000000 -0.000000 1.000000
vn 0.000000 -0.000000 1.000000
vn 0.000000 -0.000000 1.000000
vn 0.000000 -0.000000 1.000000
vn 0.000000 -1.000000 0.000000
vn 0.000000 -1.000000 0.000000
vn 0.000000 -1.000000 0.000000
vn 0.000000 -1.000000 0.000000
vn 1.000000 0.000000 0.000000
vn 1.000000 0.000000 0.000000
vn 1.000000 0.000000 0.000000
vn 1.000000 0.000000 0.000000
vn 0.000000 1.000000 0.000000
vn 0.000000 1.000000 0.000000
vn 0.000000 1.000000 0.000000
vn 0.000000 1.000000 0.000000
vn -1.000000 0.000000 0.000000
vn -1.000000 0.000000 0.000000
vn -1.000000 0.000000 0.000000
vn -1.000000 0.000000 0.000000
# 24 normals

usemtl mat_bouton
s 1
f 1/1/1 3/2/2 4/3/3 2/4/4
s 2
f 5/5/5 6/6/6 8/7/7 7/8/8
s 3
f 1/9/9 2/10/10 6/11/11 5/12/12
s 4
f 2/4/13 4/13/14 8/7/15 6/14/16
s 5
f 4/15/17 3/16/18 7/17/19 8/18/20
s 6
f 3/19/21 1/1/22 5/20/23 7/8/24

# 6 faces
