# 3ds Max Wavefront OBJ Exporter v0.97b - (c)2007 guruware
# File Created: 24.10.2016 20:19:54

mtllib pioche.mtl

#
# object Box002
#

v  -6.5574 0.0000 6.5574
v  6.5574 0.0000 6.5574
v  -6.5574 0.0000 -6.5574
v  6.5574 0.0000 -6.5574
v  -6.5574 292.4590 6.5574
v  6.5574 292.4590 6.5574
v  -6.5574 292.4590 -6.5574
v  6.5574 292.4590 -6.5574
v  6.5574 250.8677 6.5574
v  6.5574 282.6726 6.5574
v  -6.5574 282.6726 6.5574
v  -6.5574 250.8676 6.5574
v  6.5574 250.8677 -6.5574
v  6.5574 282.6726 -6.5574
v  -6.5574 250.8677 -6.5574
v  -6.5574 282.6726 -6.5574
v  10.5907 282.6726 10.5907
v  -10.5907 282.6726 10.5907
v  -10.5907 282.6726 -10.5907
v  10.5907 282.6726 -10.5907
v  -10.5907 250.8676 10.5907
v  10.5907 250.8677 10.5907
v  10.5907 250.8677 -10.5907
v  -10.5907 250.8677 -10.5907
v  6.5164 278.5983 -10.5907
v  6.5164 254.9419 -10.5907
v  -6.5164 254.9419 -10.5907
v  -6.5164 278.5983 -10.5907
v  6.5164 254.9419 10.5907
v  6.5164 278.5983 10.5907
v  -6.5164 278.5983 10.5907
v  -6.5164 254.9419 10.5907
v  26.0130 270.7487 168.1324
v  26.0130 271.1628 168.1324
v  -26.0130 271.1628 168.1324
v  -26.0130 270.7487 168.1324
v  1.2652 234.4030 -186.5177
v  1.2652 230.8759 -183.5758
v  -1.2652 230.8759 -183.5758
v  -1.2652 234.4030 -186.5177
v  2.3808 264.0278 -137.4312
v  1.9219 247.9375 -172.1519
v  2.3808 255.9810 -134.2765
v  1.9219 242.5796 -167.6830
v  -2.3808 255.9810 -134.2765
v  -1.9219 242.5796 -167.6830
v  -2.3808 264.0278 -137.4312
v  -1.9219 247.9375 -172.1519
# 48 vertices

vn 0.0000 -1.0000 -0.0000
vn 0.0000 -1.0000 -0.0000
vn 0.0000 -1.0000 -0.0000
vn 0.0000 -1.0000 -0.0000
vn 0.0000 1.0000 -0.0000
vn 0.0000 1.0000 -0.0000
vn 0.0000 1.0000 -0.0000
vn 0.0000 1.0000 -0.0000
vn 0.0000 0.0000 1.0000
vn 0.0000 0.0000 1.0000
vn 0.0000 0.0000 1.0000
vn 0.0000 0.0000 1.0000
vn 1.0000 0.0000 -0.0000
vn 1.0000 0.0000 -0.0000
vn 1.0000 0.0000 -0.0000
vn 1.0000 0.0000 -0.0000
vn 0.0000 -0.6405 -0.7679
vn 0.0000 -0.6405 -0.7679
vn 0.0000 -0.6405 -0.7679
vn 0.0000 -0.6405 -0.7679
vn -1.0000 0.0000 -0.0000
vn -1.0000 0.0000 -0.0000
vn -1.0000 0.0000 -0.0000
vn -1.0000 0.0000 -0.0000
vn 0.0000 0.0000 1.0000
vn 0.0000 0.0000 1.0000
vn 0.0000 0.0000 1.0000
vn 0.0000 0.0000 1.0000
vn 0.0000 0.0000 1.0000
vn 0.0000 0.0000 1.0000
vn 0.0000 0.0000 1.0000
vn 0.0000 0.0000 1.0000
vn 1.0000 0.0000 -0.0000
vn 1.0000 0.0000 -0.0000
vn 1.0000 0.0000 -0.0000
vn 1.0000 0.0000 -0.0000
vn 1.0000 0.0000 -0.0000
vn 1.0000 0.0000 -0.0000
vn 1.0000 0.0000 -0.0000
vn 1.0000 0.0000 -0.0000
vn 0.0000 0.0000 -1.0000
vn 0.0000 0.0000 -1.0000
vn 0.0000 0.0000 -1.0000
vn 0.0000 0.0000 -1.0000
vn 0.0000 0.0000 -1.0000
vn 0.0000 0.0000 -1.0000
vn 0.0000 0.0000 -1.0000
vn 0.0000 0.0000 -1.0000
vn -1.0000 0.0000 -0.0000
vn -1.0000 0.0000 -0.0000
vn -1.0000 0.0000 -0.0000
vn -1.0000 0.0000 -0.0000
vn -1.0000 0.0000 -0.0000
vn -1.0000 0.0000 -0.0000
vn -1.0000 0.0000 -0.0000
vn -1.0000 0.0000 -0.0000
vn 0.0000 1.0000 -0.0000
vn 0.0000 1.0000 -0.0000
vn 0.0000 1.0000 -0.0000
vn 0.0000 1.0000 -0.0000
vn 0.0000 1.0000 -0.0000
vn 0.0000 1.0000 -0.0000
vn 0.0000 1.0000 -0.0000
vn 0.0000 1.0000 -0.0000
vn 0.0000 1.0000 -0.0000
vn 0.0000 1.0000 -0.0000
vn 0.0000 1.0000 -0.0000
vn 0.0000 1.0000 -0.0000
vn 0.0000 1.0000 -0.0000
vn 0.0000 1.0000 -0.0000
vn 0.0000 1.0000 -0.0000
vn 0.0000 1.0000 -0.0000
vn 0.0000 -1.0000 -0.0000
vn 0.0000 -1.0000 -0.0000
vn 0.0000 -1.0000 -0.0000
vn 0.0000 -1.0000 -0.0000
vn 0.0000 -1.0000 -0.0000
vn 0.0000 -1.0000 -0.0000
vn 0.0000 -1.0000 -0.0000
vn 0.0000 -1.0000 -0.0000
vn 0.0000 -1.0000 -0.0000
vn 0.0000 -1.0000 -0.0000
vn 0.0000 -1.0000 -0.0000
vn 0.0000 -1.0000 -0.0000
vn 0.0000 -1.0000 -0.0000
vn 0.0000 -1.0000 -0.0000
vn 0.0000 -1.0000 -0.0000
vn 0.0000 -1.0000 -0.0000
vn 0.0000 0.0000 -1.0000
vn 0.0000 0.0000 -1.0000
vn 0.0000 0.0000 -1.0000
vn 0.0000 0.0000 -1.0000
vn 0.0000 0.0000 -1.0000
vn 0.0000 0.0000 -1.0000
vn 0.0000 0.0000 -1.0000
vn 0.0000 0.0000 -1.0000
vn 0.0000 0.0000 -1.0000
vn 0.0000 0.0000 -1.0000
vn 0.0000 0.0000 -1.0000
vn 0.0000 0.0000 -1.0000
vn 0.0000 0.0000 -1.0000
vn 0.0000 0.0000 -1.0000
vn 0.0000 0.0000 -1.0000
vn 0.0000 0.0000 -1.0000
vn 0.0000 0.0000 1.0000
vn 0.0000 0.0000 1.0000
vn 0.0000 0.0000 1.0000
vn 0.0000 0.0000 1.0000
vn 0.0000 0.0000 1.0000
vn 0.0000 0.0000 1.0000
vn 0.0000 0.0000 1.0000
vn 0.0000 0.0000 1.0000
vn 0.0000 0.0000 1.0000
vn 0.0000 0.0000 1.0000
vn 0.0000 0.0000 1.0000
vn 0.0000 0.0000 1.0000
vn 0.0000 0.0000 1.0000
vn 0.0000 0.0000 1.0000
vn 0.0000 0.0000 1.0000
vn 0.0000 0.0000 1.0000
vn 0.9924 0.0000 -0.1228
vn 0.9924 0.0000 -0.1228
vn 0.9924 0.0000 -0.1228
vn 0.9924 0.0000 -0.1228
vn 0.0000 0.9989 0.0471
vn 0.0000 0.9989 0.0471
vn 0.0000 0.9989 0.0471
vn 0.0000 0.9989 0.0471
vn -0.9924 0.0000 -0.1228
vn -0.9924 0.0000 -0.1228
vn -0.9924 0.0000 -0.1228
vn -0.9924 0.0000 -0.1228
vn 0.0000 -0.9950 0.0998
vn 0.0000 -0.9950 0.0998
vn 0.0000 -0.9950 0.0998
vn 0.0000 -0.9950 0.0998
vn 0.9999 -0.0061 -0.0108
vn 0.9999 -0.0061 -0.0108
vn 0.9999 -0.0061 -0.0108
vn 0.9999 -0.0061 -0.0108
vn 0.0000 -0.9281 0.3723
vn 0.0000 -0.9281 0.3723
vn 0.0000 -0.9281 0.3723
vn 0.0000 -0.9281 0.3723
vn -0.9999 -0.0061 -0.0108
vn -0.9999 -0.0061 -0.0108
vn -0.9999 -0.0061 -0.0108
vn -0.9999 -0.0061 -0.0108
vn 0.0000 0.9073 -0.4205
vn 0.0000 0.9073 -0.4205
vn 0.0000 0.9073 -0.4205
vn 0.0000 0.9073 -0.4205
vn 0.9994 -0.0213 -0.0256
vn 0.9994 -0.0213 -0.0256
vn 0.9994 -0.0213 -0.0256
vn 0.9994 -0.0213 -0.0256
vn 0.9995 -0.0033 -0.0328
vn 0.9995 -0.0033 -0.0328
vn 0.9995 -0.0033 -0.0328
vn 0.9995 -0.0033 -0.0328
vn 0.0000 -0.8052 0.5930
vn 0.0000 -0.8052 0.5930
vn 0.0000 -0.8052 0.5930
vn 0.0000 -0.8052 0.5930
vn 0.0000 -1.0000 -0.0084
vn 0.0000 -1.0000 -0.0084
vn 0.0000 -1.0000 -0.0084
vn 0.0000 -1.0000 -0.0084
vn -0.9994 -0.0213 -0.0256
vn -0.9994 -0.0213 -0.0256
vn -0.9994 -0.0213 -0.0256
vn -0.9994 -0.0213 -0.0256
vn -0.9995 -0.0033 -0.0328
vn -0.9995 -0.0033 -0.0328
vn -0.9995 -0.0033 -0.0328
vn -0.9995 -0.0033 -0.0328
vn 0.0000 0.7279 -0.6857
vn 0.0000 0.7279 -0.6857
vn 0.0000 0.7279 -0.6857
vn 0.0000 0.7279 -0.6857
vn 0.0000 0.9935 -0.1141
vn 0.0000 0.9935 -0.1141
vn 0.0000 0.9935 -0.1141
vn 0.0000 0.9935 -0.1141
# 184 vertex normals

vt 1.0000 0.0000 0.0000
vt 0.0000 0.0000 0.0000
vt 1.0000 1.0000 0.0000
vt 0.0000 1.0000 0.0000
vt 0.0000 0.0000 0.0000
vt 1.0000 0.0000 0.0000
vt 0.0000 1.0000 0.0000
vt 1.0000 1.0000 0.0000
vt 0.0000 0.0000 0.0000
vt 1.0000 0.0000 0.0000
vt 0.0000 1.0000 0.0000
vt 1.0000 1.0000 0.0000
vt 0.0000 0.0000 0.0000
vt 1.0000 0.0000 0.0000
vt 0.0000 1.0000 0.0000
vt 1.0000 1.0000 0.0000
vt 0.0000 0.0000 0.0000
vt 1.0000 0.0000 0.0000
vt 0.0000 1.0000 0.0000
vt 1.0000 1.0000 0.0000
vt 0.0000 0.0000 0.0000
vt 1.0000 0.0000 0.0000
vt 0.0000 1.0000 0.0000
vt 1.0000 1.0000 0.0000
vt 1.0000 0.8578 0.0000
vt 1.0000 0.9665 0.0000
vt 0.0000 0.8578 0.0000
vt 0.0000 0.9665 0.0000
vt 0.0000 0.9665 0.0000
vt 0.0000 0.8578 0.0000
vt 1.0000 0.9665 0.0000
vt 1.0000 0.8578 0.0000
vt 1.0000 0.8578 0.0000
vt 1.0000 0.9665 0.0000
vt 0.0000 0.8578 0.0000
vt 0.0000 0.9665 0.0000
vt 1.0000 0.8578 0.0000
vt 1.0000 0.9665 0.0000
vt 0.0000 0.8578 0.0000
vt 0.0000 0.9665 0.0000
vt 1.0000 0.9665 0.0000
vt 0.0000 0.9665 0.0000
vt 0.0000 0.9665 0.0000
vt 1.0000 0.9665 0.0000
vt 1.0000 0.9665 0.0000
vt 0.0000 0.9665 0.0000
vt 1.0000 0.9665 0.0000
vt 0.0000 0.9665 0.0000
vt 0.0000 0.8578 0.0000
vt 1.0000 0.8578 0.0000
vt 1.0000 0.8578 0.0000
vt 0.0000 0.8578 0.0000
vt 1.0000 0.8578 0.0000
vt 0.0000 0.8578 0.0000
vt 1.0000 0.8578 0.0000
vt 0.0000 0.8578 0.0000
vt 0.0000 0.9665 0.0000
vt 0.0000 0.8578 0.0000
vt 1.0000 0.8578 0.0000
vt 1.0000 0.9665 0.0000
vt 1.0000 0.8578 0.0000
vt 1.0000 0.9665 0.0000
vt 0.0000 0.9665 0.0000
vt 0.0000 0.8578 0.0000
vt 1.0000 0.8578 0.0000
vt 1.0000 0.9665 0.0000
vt 0.0000 0.9665 0.0000
vt 0.0000 0.8578 0.0000
vt 0.0000 0.9665 0.0000
vt 0.0000 0.8578 0.0000
vt 1.0000 0.8578 0.0000
vt 1.0000 0.9665 0.0000
vt 0.0000 0.9665 0.0000
vt 0.0000 0.9665 0.0000
vt 0.0000 0.8578 0.0000
vt 0.0000 0.8578 0.0000
vt 1.0000 0.8578 0.0000
vt 1.0000 0.8578 0.0000
vt 1.0000 0.9665 0.0000
vt 1.0000 0.9665 0.0000
# 80 texture coords

g Box002
usemtl wire_008008136
f 1/1/1 3/3/2 4/4/3 2/2/4 
f 5/5/5 6/6/6 8/8/7 7/7/8 
f 34/66/9 35/67/10 36/68/11 33/65/12 
f 20/47/13 17/42/14 22/52/15 23/53/16 
f 40/72/17 37/69/18 38/70/19 39/71/20 
f 18/44/21 19/46/22 24/56/23 21/50/24 
f 6/12/25 5/11/26 11/29/27 10/26/28 
f 1/9/29 2/10/30 9/25/31 12/30/32 
f 8/16/33 6/15/34 10/28/35 14/34/36 
f 2/13/37 4/14/38 13/33/39 9/27/40 
f 7/20/41 8/19/42 14/36/43 16/38/44 
f 4/17/45 3/18/46 15/37/47 13/35/48 
f 5/24/49 7/23/50 16/40/51 11/31/52 
f 3/21/53 1/22/54 12/32/55 15/39/56 
f 10/26/57 11/29/58 18/43/59 17/41/60 
f 11/31/61 16/40/62 19/46/63 18/44/64 
f 16/38/65 14/36/66 20/48/67 19/45/68 
f 14/34/69 10/28/70 17/42/71 20/47/72 
f 12/30/73 9/25/74 22/51/75 21/49/76 
f 9/27/77 13/33/78 23/53/79 22/52/80 
f 13/35/81 15/37/82 24/55/83 23/54/84 
f 15/39/85 12/32/86 21/50/87 24/56/88 
f 20/48/89 23/54/90 26/58/91 25/57/92 
f 23/54/93 24/55/94 27/59/95 26/58/96 
f 24/55/97 19/45/98 28/60/99 27/59/100 
f 19/45/101 20/48/102 25/57/103 28/60/104 
f 22/51/105 17/41/106 30/62/107 29/61/108 
f 17/41/109 18/43/110 31/63/111 30/62/112 
f 18/43/113 21/49/114 32/64/115 31/63/116 
f 21/49/117 22/51/118 29/61/119 32/64/120 
f 29/61/121 30/62/122 34/66/123 33/65/124 
f 30/62/125 31/63/126 35/67/127 34/66/128 
f 31/63/129 32/64/130 36/68/131 35/67/132 
f 32/64/133 29/61/134 33/65/135 36/68/136 
f 44/76/137 42/74/138 41/73/139 43/75/140 
f 46/78/141 44/76/142 43/75/143 45/77/144 
f 48/80/145 46/78/146 45/77/147 47/79/148 
f 42/74/149 48/80/150 47/79/151 41/73/152 
f 38/70/153 37/69/154 42/74/155 44/76/156 
f 25/57/157 26/58/158 43/75/159 41/73/160 
f 39/71/161 38/70/162 44/76/163 46/78/164 
f 26/58/165 27/59/166 45/77/167 43/75/168 
f 40/72/169 39/71/170 46/78/171 48/80/172 
f 27/59/173 28/60/174 47/79/175 45/77/176 
f 37/69/177 40/72/178 48/80/179 42/74/180 
f 28/60/181 25/57/182 41/73/183 47/79/184 
# 46 polygons

