# Wavefront Obj file
# 
# verts: 48 uv-s: 134
mtllib Pioche.mtl

g Box002

v -6.557373 0.000000 6.557373
v 6.557373 0.000000 6.557373
v -6.557373 0.000000 -6.557373
v 6.557373 0.000000 -6.557373
v -6.557373 295.850739 6.557373
v 6.557373 295.850739 6.557373
v -6.557373 295.850739 -6.557373
v 6.557373 295.850739 -6.557373
v 6.557373 247.527588 6.557373
v 6.557373 284.480347 6.557373
v -6.557373 284.480347 6.557373
v -6.557373 247.527557 6.557373
v 6.557373 247.527588 -6.557373
v 6.557373 284.480347 -6.557373
v -6.557373 247.527588 -6.557373
v -6.557373 284.480347 -6.557373
v 20.043219 283.961029 19.493311
v -20.043219 283.961029 19.493315
v -20.043219 283.961029 -19.493315
v 20.043219 283.961029 -19.493319
v -20.043219 248.046906 19.493319
v 20.043219 248.046906 19.493315
v 20.043219 248.046906 -19.493315
v -20.043219 248.046906 -19.493311
v 12.332575 279.360382 -19.493319
v 12.332575 252.647522 -19.493317
v -12.332573 252.647522 -19.493313
v -12.332573 279.360382 -19.493315
v 12.332572 252.647522 19.493313
v 12.332572 279.360382 19.493311
v -12.332574 279.360382 19.493315
v -12.332574 252.647522 19.493317
v 26.013046 270.748688 168.132355
v 26.013046 271.162842 168.132355
v -26.013046 271.162842 168.132355
v -26.013046 270.748657 168.132355
v 4.328249 230.406143 -186.517731
v 4.328249 234.731491 -178.871231
v -4.328249 234.731491 -178.871231
v -4.328249 230.406143 -186.517731
v 8.144922 275.137512 -115.529846
v 6.574807 256.858307 -158.568268
v 8.144922 256.788452 -111.546730
v 6.574806 247.616150 -153.563171
v -8.144924 256.788452 -111.546730
v -6.574807 247.616150 -153.563171
v -8.144924 275.137512 -115.529846
v -6.574807 256.858307 -158.568268
# 48 positions

vt 0.038016 0.596163
vt 0.080753 0.596163
vt 0.080753 0.553425
vt 0.038016 0.553425
vt 0.047738 0.415860
vt 0.047738 0.458598
vt 0.005000 0.458598
vt 0.005000 0.415860
vt 0.005000 0.239777
vt 0.005000 0.409317
vt 0.006350 0.409317
vt 0.006350 0.239777
vt 0.725486 0.835892
vt 0.725486 0.962939
vt 0.608451 0.962939
vt 0.608451 0.835892
vt 0.995000 0.745283
vt 0.995000 0.717074
vt 0.970082 0.717074
vt 0.970082 0.745283
vt 0.738679 0.426866
vt 0.738679 0.553913
vt 0.855714 0.553913
vt 0.855714 0.426866
vt 0.689156 0.426866
vt 0.689156 0.469603
vt 0.726209 0.469603
vt 0.726209 0.426866
vt 0.905173 0.047738
vt 0.905173 0.005000
vt 0.098544 0.005000
vt 0.098544 0.047738
vt 0.086074 0.480057
vt 0.086074 0.522795
vt 0.049021 0.522795
vt 0.049021 0.480057
vt 0.087539 0.295354
vt 0.087539 0.252617
vt 0.894168 0.252617
vt 0.894168 0.295354
vt 0.005000 0.465384
vt 0.005000 0.508121
vt 0.042053 0.508121
vt 0.042053 0.465384
vt 0.897836 0.214650
vt 0.897836 0.171912
vt 0.091207 0.171912
vt 0.091207 0.214650
vt 0.140731 0.302140
vt 0.140731 0.344878
vt 0.177784 0.344878
vt 0.177784 0.302140
vt 0.901505 0.132111
vt 0.901505 0.089373
vt 0.094876 0.089373
vt 0.094876 0.132111
vt 0.335675 0.704307
vt 0.335675 0.661569
vt 0.377830 0.617622
vt 0.377830 0.748254
vt 0.292938 0.661569
vt 0.250783 0.617622
vt 0.292938 0.704307
vt 0.250783 0.748254
vt 0.047155 0.742825
vt 0.047155 0.700087
vt 0.005000 0.656140
vt 0.005000 0.786772
vt 0.089893 0.700087
vt 0.132047 0.656140
vt 0.089893 0.742825
vt 0.132047 0.786772
vt 0.689156 0.302140
vt 0.689156 0.419175
vt 0.714283 0.404183
vt 0.714283 0.317132
vt 0.819788 0.419175
vt 0.794660 0.404183
vt 0.819788 0.302140
vt 0.794660 0.317132
vt 0.135632 0.531415
vt 0.135632 0.648450
vt 0.110505 0.633457
vt 0.110505 0.546407
vt 0.005000 0.648450
vt 0.030127 0.633457
vt 0.005000 0.531415
vt 0.030127 0.546407
vt 0.601475 0.922942
vt 0.601475 0.835892
vt 0.115052 0.862606
vt 0.115052 0.863955
vt 0.197591 0.346721
vt 0.197591 0.427099
vt 0.682704 0.471680
vt 0.682704 0.302140
vt 0.386513 0.604783
vt 0.386513 0.691833
vt 0.872937 0.632846
vt 0.872937 0.631496
vt 0.731402 0.566496
vt 0.731402 0.486119
vt 0.243446 0.441539
vt 0.243447 0.611079
vt 0.143621 0.409531
vt 0.173740 0.393220
vt 0.233307 0.533471
vt 0.173513 0.546451
vt 0.887609 0.752604
vt 0.887609 0.709753
vt 0.750689 0.704637
vt 0.750689 0.757721
vt 0.078329 0.458210
vt 0.108447 0.441899
vt 0.078557 0.304979
vt 0.018761 0.317958
vt 0.514277 0.820470
vt 0.514277 0.777619
vt 0.654528 0.772502
vt 0.654528 0.825586
vt 0.101634 0.327058
vt 0.087539 0.302140
vt 0.247068 0.846430
vt 0.160018 0.846430
vt 0.450710 0.690990
vt 0.450710 0.771368
vt 0.164529 0.549290
vt 0.150434 0.524372
vt 0.092050 0.005000
vt 0.005000 0.005000
vt 0.423197 0.813149
vt 0.423197 0.784940
vt 0.967487 0.758855
vt 0.967487 0.839233
# 134 texture coordinates

vn 0.000000 -1.000000 0.000000
vn 0.000000 -1.000000 0.000000
vn 0.000000 -1.000000 0.000000
vn 0.000000 -1.000000 0.000000
vn 0.000000 1.000000 0.000000
vn 0.000000 1.000000 0.000000
vn 0.000000 1.000000 0.000000
vn 0.000000 1.000000 0.000000
vn 0.000000 0.000000 1.000000
vn 0.000000 0.000000 1.000000
vn 0.000000 0.000000 1.000000
vn 0.000000 0.000000 1.000000
vn 1.000000 0.000000 0.000000
vn 1.000000 0.000000 0.000000
vn 1.000000 0.000000 0.000000
vn 1.000000 0.000000 0.000000
vn 0.000000 -0.870396 0.492352
vn 0.000000 -0.870396 0.492352
vn 0.000000 -0.870396 0.492352
vn 0.000000 -0.870396 0.492352
vn -1.000000 0.000000 0.000000
vn -1.000000 0.000000 0.000000
vn -1.000000 0.000000 0.000000
vn -1.000000 0.000000 0.000000
vn 0.000000 0.000000 1.000000
vn 0.000000 0.000000 1.000000
vn 0.000000 0.000000 1.000000
vn 0.000000 0.000000 1.000000
vn 0.000000 0.000000 1.000000
vn 0.000000 0.000000 1.000000
vn 0.000000 0.000000 1.000000
vn 0.000000 0.000000 1.000000
vn 1.000000 0.000000 0.000000
vn 1.000000 0.000000 0.000000
vn 1.000000 0.000000 0.000000
vn 1.000000 0.000000 0.000000
vn 1.000000 0.000000 0.000000
vn 1.000000 0.000000 0.000000
vn 1.000000 0.000000 0.000000
vn 1.000000 0.000000 0.000000
vn 0.000000 0.000000 -1.000000
vn 0.000000 0.000000 -1.000000
vn 0.000000 0.000000 -1.000000
vn 0.000000 0.000000 -1.000000
vn 0.000000 0.000000 -1.000000
vn 0.000000 0.000000 -1.000000
vn 0.000000 0.000000 -1.000000
vn 0.000000 0.000000 -1.000000
vn -1.000000 0.000000 0.000000
vn -1.000000 0.000000 0.000000
vn -1.000000 0.000000 0.000000
vn -1.000000 0.000000 0.000000
vn -1.000000 0.000000 0.000000
vn -1.000000 0.000000 0.000000
vn -1.000000 0.000000 0.000000
vn -1.000000 0.000000 0.000000
vn 0.000000 0.999195 0.040113
vn 0.000000 0.999195 0.040113
vn 0.000000 0.999195 0.040113
vn 0.000000 0.999195 0.040113
vn -0.038480 0.999259 0.000000
vn -0.038480 0.999259 0.000000
vn -0.038480 0.999259 0.000000
vn -0.038480 0.999259 0.000000
vn -0.000000 0.999195 -0.040113
vn -0.000000 0.999195 -0.040113
vn -0.000000 0.999195 -0.040113
vn -0.000000 0.999195 -0.040113
vn 0.038480 0.999259 0.000000
vn 0.038480 0.999259 0.000000
vn 0.038480 0.999259 0.000000
vn 0.038480 0.999259 0.000000
vn 0.000001 -0.999195 0.040114
vn 0.000001 -0.999195 0.040114
vn 0.000001 -0.999195 0.040114
vn 0.000001 -0.999195 0.040114
vn 0.038480 -0.999259 0.000000
vn 0.038480 -0.999259 0.000000
vn 0.038480 -0.999259 0.000000
vn 0.038480 -0.999259 0.000000
vn -0.000000 -0.999195 -0.040113
vn -0.000000 -0.999195 -0.040113
vn -0.000000 -0.999195 -0.040113
vn -0.000000 -0.999195 -0.040113
vn -0.038481 -0.999259 -0.000001
vn -0.038481 -0.999259 -0.000001
vn -0.038481 -0.999259 -0.000001
vn -0.038481 -0.999259 -0.000001
vn 0.000000 -0.000000 -1.000000
vn 0.000000 -0.000000 -1.000000
vn 0.000000 -0.000000 -1.000000
vn 0.000000 -0.000000 -1.000000
vn -0.000000 -0.000000 -1.000000
vn -0.000000 -0.000000 -1.000000
vn -0.000000 -0.000000 -1.000000
vn -0.000000 -0.000000 -1.000000
vn -0.000000 0.000000 1.000000
vn -0.000000 0.000000 1.000000
vn -0.000000 0.000000 1.000000
vn -0.000000 0.000000 1.000000
vn 0.000000 0.000000 1.000000
vn 0.000000 0.000000 1.000000
vn 0.000000 0.000000 1.000000
vn 0.000000 0.000000 1.000000
vn 0.995791 -0.000000 -0.091651
vn 0.995791 -0.000000 -0.091651
vn 0.995791 -0.000000 -0.091651
vn 0.995791 -0.000000 -0.091651
vn 0.000000 0.998483 0.055067
vn 0.000000 0.998483 0.055067
vn 0.000000 0.998483 0.055067
vn 0.000000 0.998483 0.055067
vn -0.995791 -0.000000 -0.091651
vn -0.995791 -0.000000 -0.091651
vn -0.995791 -0.000000 -0.091651
vn -0.995791 -0.000000 -0.091651
vn 0.000000 -0.992666 0.120886
vn 0.000000 -0.992666 0.120886
vn 0.000000 -0.992666 0.120886
vn 0.000000 -0.992666 0.120886
vn 0.999383 -0.010876 -0.033387
vn 0.999383 -0.010876 -0.033387
vn 0.999383 -0.010876 -0.033387
vn 0.999383 -0.010876 -0.033387
vn 0.000000 -0.976991 0.213280
vn 0.000000 -0.976991 0.213280
vn 0.000000 -0.976991 0.213280
vn 0.000000 -0.976991 0.213280
vn -0.999383 -0.010876 -0.033387
vn -0.999383 -0.010876 -0.033387
vn -0.999383 -0.010876 -0.033387
vn -0.999383 -0.010876 -0.033387
vn 0.000000 0.920424 -0.390921
vn 0.000000 0.920424 -0.390921
vn 0.000000 0.920424 -0.390921
vn 0.000000 0.920424 -0.390921
vn 0.996792 -0.074602 -0.028993
vn 0.996792 -0.074602 -0.028993
vn 0.996792 -0.074602 -0.028993
vn 0.996792 -0.074602 -0.028993
vn 0.999002 -0.003932 -0.044482
vn 0.999002 -0.003932 -0.044482
vn 0.999002 -0.003932 -0.044482
vn 0.999002 -0.003932 -0.044482
vn 0.000000 -0.891155 0.453699
vn 0.000000 -0.891155 0.453699
vn 0.000000 -0.891155 0.453699
vn 0.000000 -0.891155 0.453699
vn -0.000000 -0.998990 -0.044939
vn -0.000000 -0.998990 -0.044939
vn -0.000000 -0.998990 -0.044939
vn -0.000000 -0.998990 -0.044939
vn -0.996792 -0.074602 -0.028993
vn -0.996792 -0.074602 -0.028993
vn -0.996792 -0.074602 -0.028993
vn -0.996792 -0.074602 -0.028993
vn -0.999002 -0.003932 -0.044482
vn -0.999002 -0.003932 -0.044482
vn -0.999002 -0.003932 -0.044482
vn -0.999002 -0.003932 -0.044482
vn 0.000000 0.726294 -0.687385
vn 0.000000 0.726294 -0.687385
vn 0.000000 0.726294 -0.687385
vn 0.000000 0.726294 -0.687385
vn -0.000000 0.999035 -0.043929
vn -0.000000 0.999035 -0.043929
vn -0.000000 0.999035 -0.043929
vn -0.000000 0.999035 -0.043929
# 168 normals

usemtl Material_#13
s 1
f 1/1/1 3/2/2 4/3/3 2/4/4
s 2
f 5/5/5 6/6/6 8/7/7 7/8/8

usemtl Material_#15
s 3
f 34/9/9 35/10/10 36/11/11 33/12/12

usemtl Material_#14
s 4
f 20/13/13 17/14/14 22/15/15 23/16/16

usemtl Material_#15
s 5
f 40/17/17 37/18/18 38/19/19 39/20/20

usemtl Material_#14
s 6
f 18/21/21 19/22/22 24/23/23 21/24/24

usemtl Material_#13
s 7
f 6/25/25 5/26/26 11/27/27 10/28/28
s 8
f 1/29/29 2/30/30 9/31/31 12/32/32
s 9
f 8/33/33 6/34/34 10/35/35 14/36/36
s 10
f 2/37/37 4/38/38 13/39/39 9/40/40
s 11
f 7/41/41 8/42/42 14/43/43 16/44/44
s 12
f 4/45/45 3/46/46 15/47/47 13/48/48
s 13
f 5/49/49 7/50/50 16/51/51 11/52/52
s 14
f 3/53/53 1/54/54 12/55/55 15/56/56

usemtl Material_#14
s 15
f 10/57/57 11/58/58 18/59/59 17/60/60
s 16
f 11/58/61 16/61/62 19/62/63 18/59/64
s 17
f 16/61/65 14/63/66 20/64/67 19/62/68
s 18
f 14/63/69 10/57/70 17/60/71 20/64/72
s 19
f 12/65/73 9/66/74 22/67/75 21/68/76
s 20
f 9/66/77 13/69/78 23/70/79 22/67/80
s 21
f 13/69/81 15/71/82 24/72/83 23/70/84
s 22
f 15/71/85 12/65/86 21/68/87 24/72/88
s 23
f 20/73/89 23/74/90 26/75/91 25/76/92
f 23/74/90 24/77/93 27/78/94 26/75/91
f 24/77/93 19/79/95 28/80/96 27/78/94
f 19/79/95 20/73/89 25/76/92 28/80/96
s 24
f 22/81/97 17/82/98 30/83/99 29/84/100
f 17/82/98 18/85/101 31/86/102 30/83/99
f 18/85/101 21/87/103 32/88/104 31/86/102
f 21/87/103 22/81/97 29/84/100 32/88/104

usemtl Material_#15
s 25
f 29/89/105 30/90/106 34/91/107 33/92/108
s 26
f 30/93/109 31/94/110 35/95/111 34/96/112
s 27
f 31/97/113 32/98/114 36/99/115 35/100/116
s 28
f 32/101/117 29/102/118 33/103/119 36/104/120
s 29
f 44/105/121 42/106/122 41/107/123 43/108/124
s 30
f 46/109/125 44/110/126 43/111/127 45/112/128
s 31
f 48/113/129 46/114/130 45/115/131 47/116/132
s 32
f 42/117/133 48/118/134 47/119/135 41/120/136
s 33
f 38/121/137 37/122/138 42/106/139 44/105/140
s 34
f 25/123/141 26/124/142 43/108/143 41/107/144
s 35
f 39/20/145 38/19/146 44/110/147 46/109/148
s 36
f 26/125/149 27/126/150 45/112/151 43/111/152
s 37
f 40/127/153 39/128/154 46/114/155 48/113/156
s 38
f 27/129/157 28/130/158 47/116/159 45/115/160
s 39
f 37/131/161 40/132/162 48/118/163 42/117/164
s 40
f 28/133/165 25/134/166 41/120/167 47/119/168

# 46 faces
