# Wavefront Obj file
# 
# verts: 32 uv-s: 80
mtllib Interrupteur.mtl

g Piquet

v -0.582543 -5.534158 -0.000001
v 0.582543 -5.534158 -0.000001
v -0.582543 9.122444 0.000001
v 0.582543 9.122444 0.000001
v -0.582543 -5.534158 -1.094898
v 0.582543 -5.534158 -1.094898
v -0.582543 9.122444 -1.094896
v 0.582543 9.122444 -1.094896
v 0.582543 4.904433 0.000000
v -0.582543 4.904433 0.000000
v -0.582543 4.904433 -1.094897
v 0.582543 4.904433 -1.094897
v 1.896270 9.122444 1.168637
v -1.896270 9.122444 1.168637
v -1.896270 9.122444 -2.263533
v 1.896270 9.122444 -2.263533
v -1.896270 4.904432 1.168636
v 1.896270 4.904432 1.168635
v 1.896270 4.904434 -2.263533
v -1.896270 4.904434 -2.263533
# 20 positions

vt 0.624301 0.005000
vt 0.005000 0.005000
vt 0.005000 0.074122
vt 0.624301 0.074122
vt 0.005000 0.226229
vt 0.005000 0.295351
vt 0.624301 0.295351
vt 0.624301 0.226229
vt 0.633537 0.245729
vt 0.698495 0.245729
vt 0.698495 0.176607
vt 0.633537 0.176607
vt 0.005000 0.153864
vt 0.624301 0.153864
vt 0.624301 0.218822
vt 0.005000 0.218822
vt 0.350182 0.917059
vt 0.285224 0.917059
vt 0.285224 0.847937
vt 0.350182 0.847937
vt 0.005000 0.536362
vt 0.005000 0.786608
vt 0.208624 0.786608
vt 0.208624 0.536362
vt 0.005000 0.302728
vt 0.005000 0.527732
vt 0.255246 0.527732
vt 0.255246 0.302728
vt 0.263445 0.302728
vt 0.263445 0.527732
vt 0.513691 0.527732
vt 0.513691 0.302728
vt 0.521889 0.552974
vt 0.725513 0.552975
vt 0.725513 0.302728
vt 0.521889 0.302728
vt 0.624301 0.146458
vt 0.624301 0.081500
vt 0.005000 0.081500
vt 0.005000 0.146458
vt 0.419515 0.769996
vt 0.419515 0.995000
vt 0.215891 0.769996
vt 0.215891 0.995000
vt 0.285223 0.683425
vt 0.285223 0.614303
vt 0.215891 0.536362
vt 0.215891 0.761366
vt 0.350182 0.614303
vt 0.419515 0.536362
vt 0.350182 0.683425
vt 0.419515 0.761366
# 52 texture coordinates

vn 0.000000 -0.000000 1.000000
vn 0.000000 -0.000000 1.000000
vn 0.000000 -0.000000 1.000000
vn 0.000000 -0.000000 1.000000
vn 0.000000 0.000000 -1.000000
vn 0.000000 0.000000 -1.000000
vn 0.000000 0.000000 -1.000000
vn 0.000000 0.000000 -1.000000
vn 0.000000 -1.000000 0.000000
vn 0.000000 -1.000000 0.000000
vn 0.000000 -1.000000 0.000000
vn 0.000000 -1.000000 0.000000
vn 1.000000 0.000000 0.000000
vn 1.000000 0.000000 0.000000
vn 1.000000 0.000000 0.000000
vn 1.000000 0.000000 0.000000
vn 0.000000 1.000000 0.000000
vn 0.000000 1.000000 0.000000
vn 0.000000 1.000000 0.000000
vn 0.000000 1.000000 0.000000
vn -1.000000 0.000000 -0.000000
vn -1.000000 0.000000 -0.000000
vn -1.000000 0.000000 -0.000000
vn -1.000000 0.000000 -0.000000
vn 0.000000 -0.000000 1.000000
vn 0.000000 -0.000000 1.000000
vn 0.000000 -0.000000 1.000000
vn 0.000000 -0.000000 1.000000
vn 0.000000 0.000000 -1.000000
vn 0.000000 0.000000 -1.000000
vn 0.000000 0.000000 -1.000000
vn 0.000000 0.000000 -1.000000
vn 1.000000 -0.000000 0.000000
vn 1.000000 -0.000000 0.000000
vn 1.000000 -0.000000 0.000000
vn 1.000000 -0.000000 0.000000
vn -1.000000 0.000000 0.000000
vn -1.000000 0.000000 0.000000
vn -1.000000 0.000000 0.000000
vn -1.000000 0.000000 0.000000
vn 0.000000 1.000000 0.000000
vn 0.000000 1.000000 0.000000
vn 0.000000 1.000000 0.000000
vn 0.000000 1.000000 0.000000
vn -0.000000 -1.000000 -0.000000
vn 0.000000 -1.000000 -0.000000
vn 0.000000 -1.000000 -0.000000
vn -0.000000 -1.000000 -0.000000
vn 0.000000 -1.000000 -0.000001
vn 0.000000 -1.000000 -0.000001
vn -0.000000 -1.000000 -0.000001
vn -0.000000 -1.000000 -0.000001
# 52 normals

usemtl mat_piquet
s 1
f 2/1/1 9/2/2 10/3/3 1/4/4
s 2
f 11/5/5 12/6/6 6/7/7 5/8/8
s 3
f 1/9/9 5/10/10 6/11/11 2/12/12
s 4
f 6/13/13 12/14/14 9/15/15 2/16/16
s 5
f 4/17/17 8/18/18 7/19/19 3/20/20
f 4/17/17 3/20/20 14/41/41 13/42/42
f 3/20/20 7/19/19 15/43/43 14/41/41
f 7/19/19 8/18/18 16/44/44 15/43/43
f 8/18/18 4/17/17 13/42/42 16/44/44
s 6
f 15/21/21 20/22/22 17/23/23 14/24/24
s 7
f 13/25/25 14/26/26 17/27/27 18/28/28
s 8
f 15/29/29 16/30/30 19/31/31 20/32/32
s 9
f 16/33/33 13/34/34 18/35/35 19/36/36
s 10
f 5/37/37 1/38/38 10/39/39 11/40/40
s 11
f 10/45/45 9/46/46 18/47/47 17/48/48
f 9/46/46 12/49/49 19/50/50 18/47/47
f 12/49/49 11/51/51 20/52/52 19/50/50
f 11/51/51 10/45/45 17/48/48 20/52/52

g Bouton

v -1.383928 11.044591 0.328450
v 1.383928 11.044591 0.328450
v -1.383928 14.035663 0.328451
v 1.383928 14.035663 0.328451
v -1.383928 11.044591 2.828450
v 1.383928 11.044591 2.828450
v -1.383928 14.035663 2.828450
v 1.383928 14.035663 2.828450
# 8 positions

vt 0.604236 0.561173
vt 0.426782 0.561173
vt 0.426782 0.725384
vt 0.604236 0.725384
vt 0.790317 0.725384
vt 0.790317 0.561173
vt 0.612862 0.561173
vt 0.612862 0.725384
vt 0.781857 0.169212
vt 0.781857 0.005000
vt 0.633537 0.005000
vt 0.633537 0.169212
vt 0.426782 0.732780
vt 0.604236 0.732780
vt 0.604236 0.881100
vt 0.426782 0.881100
vt 0.732780 0.340819
vt 0.732780 0.176607
vt 0.881100 0.176607
vt 0.881100 0.340819
vt 0.612862 0.881100
vt 0.790316 0.881100
vt 0.790316 0.732780
vt 0.612862 0.732780
# 24 texture coordinates

vn 0.000000 0.000000 -1.000000
vn 0.000000 0.000000 -1.000000
vn 0.000000 0.000000 -1.000000
vn 0.000000 0.000000 -1.000000
vn 0.000000 -0.000000 1.000000
vn 0.000000 -0.000000 1.000000
vn 0.000000 -0.000000 1.000000
vn 0.000000 -0.000000 1.000000
vn 0.000000 -1.000000 0.000000
vn 0.000000 -1.000000 0.000000
vn 0.000000 -1.000000 0.000000
vn 0.000000 -1.000000 0.000000
vn 1.000000 0.000000 0.000000
vn 1.000000 0.000000 0.000000
vn 1.000000 0.000000 0.000000
vn 1.000000 0.000000 0.000000
vn 0.000000 1.000000 0.000000
vn 0.000000 1.000000 0.000000
vn 0.000000 1.000000 0.000000
vn 0.000000 1.000000 0.000000
vn -1.000000 0.000000 0.000000
vn -1.000000 0.000000 0.000000
vn -1.000000 0.000000 0.000000
vn -1.000000 0.000000 0.000000
# 24 normals

usemtl mat_bouton
s 12
f 21/53/53 23/54/54 24/55/55 22/56/56
s 13
f 25/57/57 26/58/58 28/59/59 27/60/60
s 14
f 21/61/61 22/62/62 26/63/63 25/64/64
s 15
f 22/65/65 24/66/66 28/67/67 26/68/68
s 16
f 24/69/69 23/70/70 27/71/71 28/72/72
s 17
f 23/73/73 21/74/74 25/75/75 27/76/76

g Signe

v -1.116863 11.258909 2.876409
v 1.108629 11.258909 2.876409
v -1.116863 13.736938 2.876409
v 1.108629 13.736938 2.876409
# 4 positions

vt 0.879797 0.480249
vt 0.879797 0.348214
vt 0.732780 0.348214
vt 0.732780 0.480249
# 4 texture coordinates

vn 0.000000 0.000000 1.000000
vn 0.000000 0.000000 1.000000
vn 0.000000 0.000000 1.000000
vn 0.000000 0.000000 1.000000
# 4 normals

usemtl mat_signes
s 18
f 29/77/77 30/78/78 32/79/79 31/80/80

# 25 faces
