# Wavefront Obj file
# 
# verts: 20 uv-s: 52
mtllib Piquet.mtl

g Piquet

v -0.582543 -5.534157 -0.000001
v 0.582543 -5.534157 -0.000001
v -0.582543 9.122444 0.000001
v 0.582543 9.122444 0.000001
v -0.582543 -5.534157 -1.094898
v 0.582543 -5.534157 -1.094898
v -0.582543 9.122444 -1.094896
v 0.582543 9.122444 -1.094896
v 0.582543 4.904433 0.000000
v -0.582543 4.904433 0.000000
v -0.582543 4.904433 -1.094897
v 0.582543 4.904433 -1.094897
v 1.896270 9.122444 1.168638
v -1.896270 9.122444 1.168638
v -1.896270 9.122444 -2.263533
v 1.896270 9.122444 -2.263533
v -1.896270 4.904432 1.168636
v 1.896270 4.904432 1.168636
v 1.896270 4.904434 -2.263533
v -1.896270 4.904434 -2.263533
# 20 positions

vt 0.792635 0.005000
vt 0.005000 0.005000
vt 0.005000 0.092911
vt 0.792635 0.092911
vt 0.005000 0.101282
vt 0.005000 0.189192
vt 0.792635 0.189192
vt 0.792635 0.101282
vt 0.802124 0.092911
vt 0.884738 0.092911
vt 0.884738 0.005000
vt 0.802124 0.005000
vt 0.005000 0.197564
vt 0.792635 0.197564
vt 0.792635 0.280178
vt 0.005000 0.280178
vt 0.713180 0.863770
vt 0.630565 0.863770
vt 0.630565 0.775860
vt 0.713180 0.775860
vt 0.005000 0.381171
vt 0.005000 0.699437
vt 0.263971 0.699437
vt 0.263971 0.381171
vt 0.273693 0.381171
vt 0.273693 0.667334
vt 0.591960 0.667334
vt 0.591960 0.381171
vt 0.600604 0.381171
vt 0.600604 0.667334
vt 0.918870 0.667334
vt 0.918870 0.381171
vt 0.273693 0.995000
vt 0.532665 0.995000
vt 0.532665 0.676734
vt 0.273694 0.676734
vt 0.792635 0.371982
vt 0.792635 0.289367
vt 0.005000 0.289367
vt 0.005000 0.371982
vt 0.801358 0.676734
vt 0.801358 0.962897
vt 0.542387 0.676734
vt 0.542387 0.962897
vt 0.093179 0.895118
vt 0.093179 0.807207
vt 0.005000 0.708081
vt 0.005000 0.994244
vt 0.175793 0.807207
vt 0.263971 0.708081
vt 0.175793 0.895118
vt 0.263971 0.994244
# 52 texture coordinates

vn 0.000000 -0.000000 1.000000
vn 0.000000 -0.000000 1.000000
vn 0.000000 -0.000000 1.000000
vn 0.000000 -0.000000 1.000000
vn 0.000000 0.000000 -1.000000
vn 0.000000 0.000000 -1.000000
vn 0.000000 0.000000 -1.000000
vn 0.000000 0.000000 -1.000000
vn 0.000000 -1.000000 0.000000
vn 0.000000 -1.000000 0.000000
vn 0.000000 -1.000000 0.000000
vn 0.000000 -1.000000 0.000000
vn 1.000000 0.000000 0.000000
vn 1.000000 0.000000 0.000000
vn 1.000000 0.000000 0.000000
vn 1.000000 0.000000 0.000000
vn 0.000000 1.000000 0.000000
vn 0.000000 1.000000 0.000000
vn 0.000000 1.000000 0.000000
vn 0.000000 1.000000 0.000000
vn -1.000000 0.000000 -0.000000
vn -1.000000 0.000000 -0.000000
vn -1.000000 0.000000 -0.000000
vn -1.000000 0.000000 -0.000000
vn 0.000000 -0.000000 1.000000
vn 0.000000 -0.000000 1.000000
vn 0.000000 -0.000000 1.000000
vn 0.000000 -0.000000 1.000000
vn 0.000000 0.000000 -1.000000
vn 0.000000 0.000000 -1.000000
vn 0.000000 0.000000 -1.000000
vn 0.000000 0.000000 -1.000000
vn 1.000000 -0.000000 0.000000
vn 1.000000 -0.000000 0.000000
vn 1.000000 -0.000000 0.000000
vn 1.000000 -0.000000 0.000000
vn -1.000000 0.000000 0.000000
vn -1.000000 0.000000 0.000000
vn -1.000000 0.000000 0.000000
vn -1.000000 0.000000 0.000000
vn 0.000000 1.000000 0.000000
vn 0.000000 1.000000 0.000000
vn 0.000000 1.000000 0.000000
vn 0.000000 1.000000 0.000000
vn -0.000000 -1.000000 -0.000000
vn 0.000000 -1.000000 -0.000000
vn 0.000000 -1.000000 -0.000000
vn -0.000000 -1.000000 -0.000000
vn 0.000000 -1.000000 -0.000001
vn 0.000000 -1.000000 -0.000001
vn -0.000000 -1.000000 -0.000001
vn -0.000000 -1.000000 -0.000001
# 52 normals

usemtl mat_piquet
s 1
f 2/1/1 9/2/2 10/3/3 1/4/4
s 2
f 11/5/5 12/6/6 6/7/7 5/8/8
s 3
f 1/9/9 5/10/10 6/11/11 2/12/12
s 4
f 6/13/13 12/14/14 9/15/15 2/16/16
s 5
f 4/17/17 8/18/18 7/19/19 3/20/20
f 4/17/17 3/20/20 14/41/41 13/42/42
f 3/20/20 7/19/19 15/43/43 14/41/41
f 7/19/19 8/18/18 16/44/44 15/43/43
f 8/18/18 4/17/17 13/42/42 16/44/44
s 6
f 15/21/21 20/22/22 17/23/23 14/24/24
s 7
f 13/25/25 14/26/26 17/27/27 18/28/28
s 8
f 15/29/29 16/30/30 19/31/31 20/32/32
s 9
f 16/33/33 13/34/34 18/35/35 19/36/36
s 10
f 5/37/37 1/38/38 10/39/39 11/40/40
s 11
f 10/45/45 9/46/46 18/47/47 17/48/48
f 9/46/46 12/49/49 19/50/50 18/47/47
f 12/49/49 11/51/51 20/52/52 19/50/50
f 11/51/51 10/45/45 17/48/48 20/52/52

# 18 faces
